<?xml version="1.0" encoding="utf-8"?><svg viewBox="0 0 512 512" xmlns="http://www.w3.org/2000/svg" xmlns:xlink="http://www.w3.org/1999/xlink"><style>:root>svg{display:none}:root>svg:target{display:block}</style><svg version="1.1" id="city" x="0" y="0" viewBox="0 0 24 24" xml:space="preserve" xmlns="http://www.w3.org/2000/svg"><style>.ast0{fill:#fff}</style><path class="ast0" d="M12.7 22.8l-.7.5-.7-.6C5.8 17.9 3 13.7 3 10c0-5.2 4.1-9 9-9s9 3.8 9 9c0 3.7-2.8 7.9-8.3 12.8zM5 10c0 2.8 2.3 6.4 7 10.7 4.7-4.2 7-7.8 7-10.7 0-4.1-3.2-7-7-7s-7 2.9-7 7zm7-5c2.8 0 5 2.2 5 5s-2.2 5-5 5-5-2.2-5-5 2.2-5 5-5zm0 2c-1.7 0-3 1.3-3 3s1.3 3 3 3 3-1.3 3-3-1.3-3-3-3z"/></svg><svg viewBox="0 0 41.8 41.8" id="close" xmlns="http://www.w3.org/2000/svg"><path d="M27.9 20.9L40.3 8.5c2-2 2-5.1 0-7.1s-5.1-2-7.1 0L20.9 13.8 8.5 1.5c-2-2-5.1-2-7.1 0s-2 5.1 0 7.1l12.3 12.3L1.5 33.2c-2 2-2 5.1 0 7.1 1 1 2.3 1.5 3.5 1.5 1.3 0 2.6-.5 3.5-1.5L20.8 28l12.3 12.3c1 1 2.3 1.5 3.5 1.5s2.6-.5 3.5-1.5c2-2 2-5.1 0-7.1L27.9 20.9z"/></svg><svg version="1.1" id="favorite" x="0" y="0" viewBox="0 0 477.5 477.5" xml:space="preserve" xmlns="http://www.w3.org/2000/svg"><style>.cst0{fill:#fff}</style><path class="cst0" d="M438.5 58.6c-24.7-26.5-59.3-41.7-95.6-41.7S272 32 247.2 58.6l-8.4 8.9-8.4-8.9C181.3 5.8 98.7 2.7 45.8 51.8c-2.3 2.2-4.6 4.4-6.8 6.8-52.1 56.2-52.1 143 0 199.1l187.4 197.6c6.5 6.8 17.3 7.1 24.1.7l.7-.7 187.3-197.6c52.1-56.1 52.1-142.9 0-199.1zm-24.7 175.6l-175 184.5-175-184.5C24 191.3 24 125 63.8 82.1c36.1-39.2 97.2-41.6 136.3-5.5 1.9 1.8 3.7 3.6 5.5 5.5l20.8 21.9c6.9 6.8 17.9 6.8 24.8 0L272 82.1c36.1-39.2 97.2-41.6 136.3-5.5 1.9 1.8 3.7 3.6 5.5 5.5 40.1 43 40.4 109.4 0 152.1z"/></svg><svg viewBox="0 0 477.5 477.5" id="favorite-active" xmlns="http://www.w3.org/2000/svg"><path class="dst0" d="M438.5 58.6c-24.7-26.5-59.3-41.7-95.6-41.7S272 32 247.2 58.6l-8.4 8.9-8.4-8.9C181.3 5.8 98.7 2.7 45.8 51.8c-2.3 2.2-4.6 4.4-6.8 6.8-52.1 56.2-52.1 143 0 199.1l187.4 197.6c6.5 6.8 17.3 7.1 24.1.7l.7-.7 187.3-197.6c52.1-56.1 52.1-142.9 0-199.1z"/></svg><svg version="1.1" id="fb" x="0" y="0" viewBox="0 0 122.4 233" xml:space="preserve" xmlns="http://www.w3.org/2000/svg"><style>.est0{fill:#fff}</style><path class="est0" d="M0 85.6h35.2c.1-15.4.3-30.8.7-46.2.4-16.8 15-33.2 39.3-37.5 19.1-3.4 31-1.4 47.1 0 0 11.9.1 25.1.1 37H96.8c-14.4-.4-20.4 8-19 23.9v22.8H118l-3.3 41.9h-37V233H35.9c0-35.2-.5-70.4-.7-105.5H0V85.6z"/></svg><svg version="1.1" id="insta" x="0" y="0" viewBox="0 0 440.8 440.8" xml:space="preserve" xmlns="http://www.w3.org/2000/svg"><style>.fst0{fill:#fff}</style><path class="fst0" d="M309.5 0H131.3C58.9 0 0 58.9 0 131.3v178.2c0 72.4 58.9 131.3 131.3 131.3h178.2c72.4 0 131.3-58.9 131.3-131.3V131.3C440.8 58.9 381.9 0 309.5 0zm87 309.5c0 48-38.9 87-87 87H131.3c-48 0-87-38.9-87-87V131.3c0-48 38.9-87 87-87h178.2c48 0 87 38.9 87 87v178.2z"/><path class="fst0" d="M220.4 106.4c-62.9 0-114 51.1-114 114s51.1 114 114 114 114-51.1 114-114-51.1-114-114-114zm0 183.7c-38.5 0-69.7-31.2-69.7-69.7s31.2-69.7 69.7-69.7 69.7 31.2 69.7 69.7-31.2 69.7-69.7 69.7zM362 107.3c0 15.1-12.2 27.3-27.3 27.3-15.1 0-27.3-12.2-27.3-27.3S319.6 80 334.7 80c15-.1 27.3 12.2 27.3 27.3z"/></svg><svg version="1.1" id="map" x="0" y="0" viewBox="0 0 24 24" xml:space="preserve" xmlns="http://www.w3.org/2000/svg"><style>.gst0{fill:#fff}</style><path class="gst0" d="M12.7 22.8l-.7.5-.7-.6C5.8 17.9 3 13.7 3 10c0-5.2 4.1-9 9-9s9 3.8 9 9c0 3.7-2.8 7.9-8.3 12.8zM5 10c0 2.8 2.3 6.4 7 10.7 4.7-4.2 7-7.8 7-10.7 0-4.1-3.2-7-7-7s-7 2.9-7 7zm7-5c2.8 0 5 2.2 5 5s-2.2 5-5 5-5-2.2-5-5 2.2-5 5-5zm0 2c-1.7 0-3 1.3-3 3s1.3 3 3 3 3-1.3 3-3-1.3-3-3-3z"/></svg><svg viewBox="0 0 24 24" class="hicon-mood-happy" id="mood-happy" xmlns="http://www.w3.org/2000/svg"><circle cx="12" cy="12" r="10" fill="var(--primary)"/><path class="hsecondary" d="M6.8 14h10.4a1 1 0 01.86 1.5 7 7 0 01-12.12 0A1 1 0 016.8 14zm1.7-3a1.5 1.5 0 110-3 1.5 1.5 0 010 3zm7 0a1.5 1.5 0 110-3 1.5 1.5 0 010 3z"/></svg><svg viewBox="0 0 24 24" class="iicon-mood-sad" id="mood-sad" xmlns="http://www.w3.org/2000/svg"><circle cx="12" cy="12" r="10" fill="var(--primary)"/><path class="isecondary" d="M16.47 18H7.53a1 1 0 01-.75-1.67 6.98 6.98 0 0110.44 0 1 1 0 01-.75 1.67zM8.5 11a1.5 1.5 0 110-3 1.5 1.5 0 010 3zm7 0a1.5 1.5 0 110-3 1.5 1.5 0 010 3z"/></svg><svg version="1.1" id="next" x="0" y="0" viewBox="0 0 492 492" xml:space="preserve" xmlns="http://www.w3.org/2000/svg"><style>.jst0{fill:#fff}</style><path class="jst0" d="M382.7 226.8L163.7 7.9c-5.1-5.1-11.8-7.9-19-7.9s-14 2.8-19 7.9L109.5 24C99 34.5 99 51.6 109.5 62.1L293.4 246 109.3 430c-5.1 5.1-7.9 11.8-7.9 19 0 7.2 2.8 14 7.9 19l16.1 16.1c5.1 5.1 11.8 7.9 19 7.9s14-2.8 19-7.9L382.7 265c5.1-5.1 7.9-11.9 7.8-19.1 0-7.2-2.7-14-7.8-19.1z"/></svg><svg viewBox="0 0 512 512" id="paper-clip" xmlns="http://www.w3.org/2000/svg"><path d="M226 512c-49.626 0-90-40.374-90-90V120C136 53.832 189.832 0 256 0s120 53.832 120 120v302h-30V120c0-49.626-40.374-90-90-90s-90 40.374-90 90v302c0 33.084 26.916 60 60 60s60-26.916 60-60V180c0-16.542-13.458-30-30-30s-30 13.458-30 30v242h-30V180c0-33.084 26.916-60 60-60s60 26.916 60 60v242c0 49.626-40.374 90-90 90z"/></svg><svg version="1.1" id="pinterest" x="0" y="0" viewBox="0 0 68.1 85" xml:space="preserve" xmlns="http://www.w3.org/2000/svg"><style>.lst0{fill:#fff}</style><path id="lXMLID_23_" class="lst0" d="M36.1 0C22.5 0 8.8 6.1 2.8 18.9c-3.2 6.6-3.8 14.6-1 21.4 1.2 2.9 3 5.5 5.6 7.4 1 .7 2.9 2.1 4.3 1.7 1.4-.4 1.5-2.3 1.8-3.5.3-1.2 1-2.6.3-3.8-.9-1.5-2.2-2.6-2.8-4.4-.8-2.3-1.2-5-1.1-7.4.4-7.6 4.6-14.5 11.1-18.4 10.1-6 27.1-5.1 32.8 6.6 2.8 5.8 2.1 13.1.5 19.2-1.5 5.6-4.5 11.9-10.2 14.4-5.1 2.2-12.5.1-12.7-6.3-.1-1.8.6-3.7 1.1-5.4.6-2 1.3-4.1 1.9-6.1 1-3.3 2.2-7 1.3-10.4-1.6-6.1-9.2-6-12.9-1.9-2.1 2.3-3.1 5.4-3.3 8.4-.2 2.3.5 4.5 1 6.7.2.9.6 1.8.5 2.7-.2 1.3-.6 2.6-.9 3.8l-3.3 13.5c-.9 3.9-2.1 7.8-2.7 11.7-.5 3.5-.5 7-.2 10.5.1 1.2.2 2.4.4 3.6.1.5 0 1.6.4 2 1 .9 3.1-2.7 3.5-3.3 1.9-2.7 3.7-5.6 5.1-8.6 2-4.4 2.9-9.3 4.2-13.9.3-1.2.7-2.5 1-3.7 2 3.8 6.9 5.7 11 6 3.8.3 7.8-.4 11.3-1.9 7-3 12-9.2 14.7-16.3 2.9-7.6 3.9-16.8.9-24.5C63.6 12 58.2 6.5 51.6 3.4 45.7.6 39.4 0 32.9 0h9.5-6.3c-13 0 19.3 0 0 0z"/></svg><svg version="1.1" id="search" x="0" y="0" viewBox="0 0 24 24" xml:space="preserve" xmlns="http://www.w3.org/2000/svg"><style>.mst0{fill:#fff}</style><path class="mst0" d="M16.3 14.9l5.4 5.4-1.4 1.4-5.4-5.4C13.6 17.4 11.8 18 10 18c-4.4 0-8-3.6-8-8s3.6-8 8-8 8 3.6 8 8c0 1.8-.6 3.6-1.7 4.9zM10 16c3.3 0 6-2.7 6-6s-2.7-6-6-6-6 2.7-6 6 2.7 6 6 6z"/></svg><svg version="1.1" id="telegram" x="0" y="0" viewBox="0 0 301.4 260.4" xml:space="preserve" xmlns="http://www.w3.org/2000/svg"><style>.nst0{fill:#fff}</style><path class="nst0" d="M279.5 2.9l-267.7 105S-.9 112.2.1 120.2s11.3 11.7 11.3 11.7l67.3 22.7.1.1v-.1L240.4 51.9s9.3-5.7 9 0c0 0 1.7 1-3.3 5.7s-127 114.3-127 114.3l-8.8 75c3.7 1.6 7.1-1 7.1-1l43.5-39.7 67.8 52c18.3 8 25-8.7 25-8.7L301.4 9.2c0-16-22-6.3-21.9-6.3z"/></svg><svg version="1.1" id="viber" x="0" y="0" viewBox="0 0 100 108" xml:space="preserve" xmlns="http://www.w3.org/2000/svg"><style>.ost0{fill:#fff}</style><path class="ost0" d="M91.6 60.5C89 82.4 73.3 83.8 70.4 84.8c-1.2.4-12.7 3.3-27 2.4l-15.6 17.3V84.6h-.1c-20.9-6-20.2-28.3-20-40 .2-11.7 2.4-21.3 8.8-27.8 11.5-10.6 35.1-9 35.1-9 20 .1 29.5 6.2 31.7 8.3 7.3 6.4 11.1 21.8 8.3 44.4m-2.9-50C86.1 8.1 75.5.2 51.9.1c0 0-27.8-1.7-41.4 11C3 18.8.3 30.1.1 44.1c-.3 14-.6 40.3 24.1 47.4v10.9s-.2 4.4 2.7 5.3c3.4 1.1 5.4-2.3 8.7-5.9 1.8-2 4.3-4.9 6.1-7.1 16.9 1.5 29.9-1.9 31.4-2.4 3.4-1.1 22.7-3.7 25.9-29.9 3.2-27-1.6-44.2-10.3-51.9"/><path class="ost0" d="M73.6 63.8s-3.2-2.7-4.7-3.9c-1.5-1.1-3.8-2.6-5.1-3.3-2.3-1.3-4.7-.5-5.7.8l-2 2.6c-1 1.3-2.7 1.1-3.1 1-3-.8-6.2-2.6-9.5-5.8s-5.3-6.6-6-10l-.1-.2c-.2-1.4 0-2.1.6-3.1l.1-.1c1.4-1.3 3.9-2.8 4.3-4.3 1-2.6-3.4-8-4-8.9 0 0-3.2-4.2-4.3-5-1.2-1-3.1-1.6-5-.4H29c-5.5 3.7-7.4 5.8-6.9 9l.3 1.3c2.8 8.7 8.1 18.1 16.1 26.4 7.9 8.1 16.5 13 24.9 16.4 2.2.7 4.5.1 6.8-1.9 1.8-1.7 3.2-3.5 4.2-5.4 1.1-2 .7-3.9-.8-5.2M60.5 44.6c-.3 0-.6-.3-.6-.6-.1-2.3-.7-4-1.8-5.2s-2.7-1.8-4.8-1.9c-.3 0-.6-.3-.6-.7s.3-.6.7-.6c2.5.1 4.4.9 5.7 2.3 1.3 1.4 2 3.4 2.2 6-.1.4-.4.7-.8.7"/><path class="ost0" d="M66.7 46.8c-.4 0-.6-.3-.6-.7.1-4.3-1.2-8-3.8-10.9-1.3-1.5-2.9-2.6-4.7-3.4-1.8-.8-3.9-1.3-6.3-1.5-.3 0-.6-.3-.6-.7 0-.4.3-.6.7-.6 5 .4 9 2.2 11.8 5.3 2.8 3.2 4.2 7.1 4.1 11.8.1.4-.2.7-.6.7"/><path class="ost0" d="M73.1 49.3c-.3 0-.6-.3-.6-.6 0-3.8-.6-7.3-1.7-10.3s-2.8-5.6-5-7.8-4.7-3.9-7.4-5-5.8-1.7-9.1-1.7c-.3 0-.6-.3-.6-.6 0-.4.3-.6.6-.6 6.9.1 12.7 2.4 17.4 7.1 2.3 2.3 4.1 5.1 5.3 8.3 1.2 3.2 1.8 6.8 1.8 10.8 0 .1-.3.4-.7.4z"/></svg><svg version="1.1" id="vk" x="0" y="0" viewBox="0 0 428.1 245.9" xml:space="preserve" xmlns="http://www.w3.org/2000/svg"><style>.pst0{fill:#fff}</style><path class="pst0" d="M4.1 37.2C.5 27.8-4.1 18 6.8 12.7l66.4-.9c9.6.3 14 7.4 19.1 17.3 14.9 28.7 30.4 57.3 49.1 83.6 6.1 8.6 16.4 11.9 24.5-1.8l2.7-55.5c-3-21.5-10.5-34.2-23.6-35.5-7.5-7.3-2.1-13.3 14.7-16.5 26.7-5.7 50-3.1 70.5-.5C247.5 4 250 15.7 249.7 29.1c-.6 24.5-1.1 49.1-1.1 73.6 5.1 24.9 18.7 14.9 27.7 4.1 16.1-22.9 30.1-45.2 41.8-70.3 12.1-25.8 15.4-23.9 23.9-24 20.3-.1 42.7-1.1 58.9-.5 33.8-2 29.9 13 20.4 28.9-16.4 27.7-37.5 52.7-56.3 79.1-11.4 15.5-11.2 25.2.9 33.6 17.9 19.7 37.3 38.1 53.6 59.1 17.7 22.9 4.7 29.2-11.8 30.9h-59.1c-16.8.3-32-3.9-42.7-21.8-24.7-32.7-43.1-41.7-50.5-23.3-3.2 8.1-5.9 19-5.8 29.6.1 14.8-8.8 16-20.9 16.4-13 0-26.5 3.2-39.1 0-44.6-11.3-87.4-32.1-129.1-103.6C41.7 110 22.9 76.2 4.1 37.2z"/></svg><svg version="1.1" id="whatsapp" x="0" y="0" viewBox="0 0 100 100.5" xml:space="preserve" xmlns="http://www.w3.org/2000/svg"><style>.qst0{fill:#fff}</style><path class="qst0" d="M85.4 14.6C76 5.2 63.5 0 50.2 0 22.8 0 .4 22.3.4 49.8c0 8.8 2.3 17.3 6.6 24.9l-7 25.8 26.4-6.9c7.3 4 15.5 6.1 23.8 6.1 27.4 0 49.8-22.3 49.8-49.8 0-13.4-5.2-25.9-14.6-35.3zM50.2 91.2c-7.4 0-14.7-2-21.1-5.8l-1.5-.9L12 88.7l4.2-15.3-1-1.6c-4.1-6.6-6.3-14.2-6.3-22C8.8 27 27.4 8.4 50.2 8.4c11.1 0 21.4 4.3 29.3 12.1 7.8 7.8 12.1 18.2 12.1 29.3 0 22.8-18.6 41.4-41.4 41.4zm22.7-31c-1.2-.6-7.4-3.6-8.5-4s-2-.6-2.8.6c-.8 1.2-3.2 4-3.9 4.9-.7.8-1.5.9-2.7.3s-5.3-1.9-10-6.2c-3.7-3.3-6.2-7.4-6.9-8.6s-.1-1.9.5-2.5 1.2-1.5 1.9-2.2c.6-.7.8-1.2 1.2-2.1.4-.8.2-1.6-.1-2.2-.3-.6-2.8-6.7-3.8-9.2-1-2.4-2-2.1-2.8-2.1h-2.4c-.8 0-2.2.3-3.3 1.6-1.1 1.2-4.4 4.3-4.4 10.4s4.5 12 5.1 12.9c.6.8 8.8 13.4 21.3 18.8 3 1.3 5.3 2 7.1 2.6 3 .9 5.7.8 7.8.5 2.4-.4 7.4-3 8.4-5.9s1-5.4.7-5.9c-.3-.8-1.1-1.1-2.4-1.7z" id="qWA_Logo"/></svg><svg viewBox="0 0 512 512" id="zoom-in" xmlns="http://www.w3.org/2000/svg"><path d="M506.141 477.851L361.689 333.399c65.814-80.075 61.336-198.944-13.451-273.73-79.559-79.559-209.01-79.559-288.569 0s-79.559 209.01 0 288.569c74.766 74.766 193.62 79.293 273.73 13.451l144.452 144.452c7.812 7.812 20.477 7.812 28.289 0 7.813-7.813 7.813-20.478.001-28.29zM319.949 319.948c-63.96 63.96-168.03 63.959-231.99 0-63.96-63.96-63.96-168.03 0-231.99 63.958-63.957 168.028-63.962 231.99 0 63.96 63.96 63.96 168.03 0 231.99z"/><path d="M301.897 183.949h-77.94v-77.94c0-11.048-8.956-20.004-20.004-20.004-11.048 0-20.004 8.956-20.004 20.004v77.94h-77.94c-11.048 0-20.004 8.956-20.004 20.004 0 11.048 8.956 20.004 20.004 20.004h77.94v77.94c0 11.048 8.956 20.004 20.004 20.004 11.048 0 20.004-8.956 20.004-20.004v-77.94h77.94c11.048 0 20.004-8.956 20.004-20.004 0-11.048-8.956-20.004-20.004-20.004z"/></svg></svg>