<?xml version="1.0" encoding="utf-8"?><svg version="1.1" id="cCapa_1" xmlns="http://www.w3.org/2000/svg" x="0" y="0" viewBox="0 0 477.5 477.5" xml:space="preserve" width="477.5" height="477.5"><style>.cst0{fill:#fff}</style><path class="cst0" d="M438.5 58.6c-24.7-26.5-59.3-41.7-95.6-41.7S272 32 247.2 58.6l-8.4 8.9-8.4-8.9C181.3 5.8 98.7 2.7 45.8 51.8c-2.3 2.2-4.6 4.4-6.8 6.8-52.1 56.2-52.1 143 0 199.1l187.4 197.6c6.5 6.8 17.3 7.1 24.1.7l.7-.7 187.3-197.6c52.1-56.1 52.1-142.9 0-199.1zm-24.7 175.6l-175 184.5-175-184.5C24 191.3 24 125 63.8 82.1c36.1-39.2 97.2-41.6 136.3-5.5 1.9 1.8 3.7 3.6 5.5 5.5l20.8 21.9c6.9 6.8 17.9 6.8 24.8 0L272 82.1c36.1-39.2 97.2-41.6 136.3-5.5 1.9 1.8 3.7 3.6 5.5 5.5 40.1 43 40.4 109.4 0 152.1z"/></svg>