<?xml version="1.0" encoding="utf-8"?><svg version="1.1" id="fLayer_1" xmlns="http://www.w3.org/2000/svg" x="0" y="0" viewBox="0 0 440.8 440.8" xml:space="preserve" width="440.8" height="440.8"><style>.fst0{fill:#fff}</style><path class="fst0" d="M309.5 0H131.3C58.9 0 0 58.9 0 131.3v178.2c0 72.4 58.9 131.3 131.3 131.3h178.2c72.4 0 131.3-58.9 131.3-131.3V131.3C440.8 58.9 381.9 0 309.5 0zm87 309.5c0 48-38.9 87-87 87H131.3c-48 0-87-38.9-87-87V131.3c0-48 38.9-87 87-87h178.2c48 0 87 38.9 87 87v178.2z"/><path class="fst0" d="M220.4 106.4c-62.9 0-114 51.1-114 114s51.1 114 114 114 114-51.1 114-114-51.1-114-114-114zm0 183.7c-38.5 0-69.7-31.2-69.7-69.7s31.2-69.7 69.7-69.7 69.7 31.2 69.7 69.7-31.2 69.7-69.7 69.7zM362 107.3c0 15.1-12.2 27.3-27.3 27.3-15.1 0-27.3-12.2-27.3-27.3S319.6 80 334.7 80c15-.1 27.3 12.2 27.3 27.3z"/></svg>