<?xml version="1.0" encoding="utf-8"?><svg version="1.1" id="gLayer_1" xmlns="http://www.w3.org/2000/svg" x="0" y="0" viewBox="0 0 24 24" xml:space="preserve" width="24" height="24"><style>.gst0{fill:#fff}</style><path class="gst0" d="M12.7 22.8l-.7.5-.7-.6C5.8 17.9 3 13.7 3 10c0-5.2 4.1-9 9-9s9 3.8 9 9c0 3.7-2.8 7.9-8.3 12.8zM5 10c0 2.8 2.3 6.4 7 10.7 4.7-4.2 7-7.8 7-10.7 0-4.1-3.2-7-7-7s-7 2.9-7 7zm7-5c2.8 0 5 2.2 5 5s-2.2 5-5 5-5-2.2-5-5 2.2-5 5-5zm0 2c-1.7 0-3 1.3-3 3s1.3 3 3 3 3-1.3 3-3-1.3-3-3-3z"/></svg>