<?xml version="1.0" encoding="utf-8"?><svg version="1.1" id="jLayer_1" xmlns="http://www.w3.org/2000/svg" x="0" y="0" viewBox="0 0 492 492" xml:space="preserve" width="492" height="492"><style>.jst0{fill:#fff}</style><path class="jst0" d="M382.7 226.8L163.7 7.9c-5.1-5.1-11.8-7.9-19-7.9s-14 2.8-19 7.9L109.5 24C99 34.5 99 51.6 109.5 62.1L293.4 246 109.3 430c-5.1 5.1-7.9 11.8-7.9 19 0 7.2 2.8 14 7.9 19l16.1 16.1c5.1 5.1 11.8 7.9 19 7.9s14-2.8 19-7.9L382.7 265c5.1-5.1 7.9-11.9 7.8-19.1 0-7.2-2.7-14-7.8-19.1z"/></svg>