<?xml version="1.0" encoding="utf-8"?><svg version="1.1" id="jOBJECTS" xmlns="http://www.w3.org/2000/svg" x="0" y="0" viewBox="0 0 68.1 85" xml:space="preserve" width="68.1" height="85"><style>.jst0{fill:#fff}</style><path id="jXMLID_23_" class="jst0" d="M36.1 0C22.5 0 8.8 6.1 2.8 18.9c-3.2 6.6-3.8 14.6-1 21.4 1.2 2.9 3 5.5 5.6 7.4 1 .7 2.9 2.1 4.3 1.7 1.4-.4 1.5-2.3 1.8-3.5.3-1.2 1-2.6.3-3.8-.9-1.5-2.2-2.6-2.8-4.4-.8-2.3-1.2-5-1.1-7.4.4-7.6 4.6-14.5 11.1-18.4 10.1-6 27.1-5.1 32.8 6.6 2.8 5.8 2.1 13.1.5 19.2-1.5 5.6-4.5 11.9-10.2 14.4-5.1 2.2-12.5.1-12.7-6.3-.1-1.8.6-3.7 1.1-5.4.6-2 1.3-4.1 1.9-6.1 1-3.3 2.2-7 1.3-10.4-1.6-6.1-9.2-6-12.9-1.9-2.1 2.3-3.1 5.4-3.3 8.4-.2 2.3.5 4.5 1 6.7.2.9.6 1.8.5 2.7-.2 1.3-.6 2.6-.9 3.8l-3.3 13.5c-.9 3.9-2.1 7.8-2.7 11.7-.5 3.5-.5 7-.2 10.5.1 1.2.2 2.4.4 3.6.1.5 0 1.6.4 2 1 .9 3.1-2.7 3.5-3.3 1.9-2.7 3.7-5.6 5.1-8.6 2-4.4 2.9-9.3 4.2-13.9.3-1.2.7-2.5 1-3.7 2 3.8 6.9 5.7 11 6 3.8.3 7.8-.4 11.3-1.9 7-3 12-9.2 14.7-16.3 2.9-7.6 3.9-16.8.9-24.5C63.6 12 58.2 6.5 51.6 3.4 45.7.6 39.4 0 32.9 0h9.5-6.3c-13 0 19.3 0 0 0z"/></svg>