<?xml version="1.0" encoding="utf-8"?><svg version="1.1" id="mLayer_1" xmlns="http://www.w3.org/2000/svg" x="0" y="0" viewBox="0 0 100 108" xml:space="preserve" width="100" height="108"><style>.mst0{fill:#fff}</style><path class="mst0" d="M91.6 60.5C89 82.4 73.3 83.8 70.4 84.8c-1.2.4-12.7 3.3-27 2.4l-15.6 17.3V84.6h-.1c-20.9-6-20.2-28.3-20-40 .2-11.7 2.4-21.3 8.8-27.8 11.5-10.6 35.1-9 35.1-9 20 .1 29.5 6.2 31.7 8.3 7.3 6.4 11.1 21.8 8.3 44.4m-2.9-50C86.1 8.1 75.5.2 51.9.1c0 0-27.8-1.7-41.4 11C3 18.8.3 30.1.1 44.1c-.3 14-.6 40.3 24.1 47.4v10.9s-.2 4.4 2.7 5.3c3.4 1.1 5.4-2.3 8.7-5.9 1.8-2 4.3-4.9 6.1-7.1 16.9 1.5 29.9-1.9 31.4-2.4 3.4-1.1 22.7-3.7 25.9-29.9 3.2-27-1.6-44.2-10.3-51.9"/><path class="mst0" d="M73.6 63.8s-3.2-2.7-4.7-3.9c-1.5-1.1-3.8-2.6-5.1-3.3-2.3-1.3-4.7-.5-5.7.8l-2 2.6c-1 1.3-2.7 1.1-3.1 1-3-.8-6.2-2.6-9.5-5.8s-5.3-6.6-6-10l-.1-.2c-.2-1.4 0-2.1.6-3.1l.1-.1c1.4-1.3 3.9-2.8 4.3-4.3 1-2.6-3.4-8-4-8.9 0 0-3.2-4.2-4.3-5-1.2-1-3.1-1.6-5-.4H29c-5.5 3.7-7.4 5.8-6.9 9l.3 1.3c2.8 8.7 8.1 18.1 16.1 26.4 7.9 8.1 16.5 13 24.9 16.4 2.2.7 4.5.1 6.8-1.9 1.8-1.7 3.2-3.5 4.2-5.4 1.1-2 .7-3.9-.8-5.2M60.5 44.6c-.3 0-.6-.3-.6-.6-.1-2.3-.7-4-1.8-5.2s-2.7-1.8-4.8-1.9c-.3 0-.6-.3-.6-.7s.3-.6.7-.6c2.5.1 4.4.9 5.7 2.3 1.3 1.4 2 3.4 2.2 6-.1.4-.4.7-.8.7"/><path class="mst0" d="M66.7 46.8c-.4 0-.6-.3-.6-.7.1-4.3-1.2-8-3.8-10.9-1.3-1.5-2.9-2.6-4.7-3.4-1.8-.8-3.9-1.3-6.3-1.5-.3 0-.6-.3-.6-.7 0-.4.3-.6.7-.6 5 .4 9 2.2 11.8 5.3 2.8 3.2 4.2 7.1 4.1 11.8.1.4-.2.7-.6.7"/><path class="mst0" d="M73.1 49.3c-.3 0-.6-.3-.6-.6 0-3.8-.6-7.3-1.7-10.3s-2.8-5.6-5-7.8-4.7-3.9-7.4-5-5.8-1.7-9.1-1.7c-.3 0-.6-.3-.6-.6 0-.4.3-.6.6-.6 6.9.1 12.7 2.4 17.4 7.1 2.3 2.3 4.1 5.1 5.3 8.3 1.2 3.2 1.8 6.8 1.8 10.8 0 .1-.3.4-.7.4z"/></svg>