<?xml version="1.0" encoding="utf-8"?><svg version="1.1" id="nLayer_1" xmlns="http://www.w3.org/2000/svg" x="0" y="0" viewBox="0 0 428.1 245.9" xml:space="preserve" width="428.1" height="245.9"><style>.nst0{fill:#fff}</style><path class="nst0" d="M4.1 37.2C.5 27.8-4.1 18 6.8 12.7l66.4-.9c9.6.3 14 7.4 19.1 17.3 14.9 28.7 30.4 57.3 49.1 83.6 6.1 8.6 16.4 11.9 24.5-1.8l2.7-55.5c-3-21.5-10.5-34.2-23.6-35.5-7.5-7.3-2.1-13.3 14.7-16.5 26.7-5.7 50-3.1 70.5-.5C247.5 4 250 15.7 249.7 29.1c-.6 24.5-1.1 49.1-1.1 73.6 5.1 24.9 18.7 14.9 27.7 4.1 16.1-22.9 30.1-45.2 41.8-70.3 12.1-25.8 15.4-23.9 23.9-24 20.3-.1 42.7-1.1 58.9-.5 33.8-2 29.9 13 20.4 28.9-16.4 27.7-37.5 52.7-56.3 79.1-11.4 15.5-11.2 25.2.9 33.6 17.9 19.7 37.3 38.1 53.6 59.1 17.7 22.9 4.7 29.2-11.8 30.9h-59.1c-16.8.3-32-3.9-42.7-21.8-24.7-32.7-43.1-41.7-50.5-23.3-3.2 8.1-5.9 19-5.8 29.6.1 14.8-8.8 16-20.9 16.4-13 0-26.5 3.2-39.1 0-44.6-11.3-87.4-32.1-129.1-103.6C41.7 110 22.9 76.2 4.1 37.2z"/></svg>